<?xml version="1.0" standalone="no"?><!DOCTYPE svg PUBLIC "-//W3C//DTD SVG 1.1//EN" "http://www.w3.org/Graphics/SVG/1.1/DTD/svg11.dtd"><svg t="1615799398863" class="icon" viewBox="0 0 1024 1024" version="1.1" xmlns="http://www.w3.org/2000/svg" p-id="13100" xmlns:xlink="http://www.w3.org/1999/xlink" width="48" height="48"><defs><style type="text/css"></style></defs><path d="M512 512m-512 0a512 512 0 1 0 1024 0 512 512 0 1 0-1024 0Z" fill="#28A5C6" p-id="13101" data-spm-anchor-id="a313x.7781069.0.i1"></path><path d="M357.6 298.4c8 32.8 5.6 49.6 5.6 49.6s40.8-12 61.6 15.2c20.8 26.4-32 46.4-65.6 49.6-44 4-98.4-21.6-98.4-21.6s-0.8 20.8-16 42.4c-16 21.6-61.6 58.4-61.6 58.4s39.2 6.4 59.2 24 44 45.6 44 45.6 16-38.4 52.8-45.6c36-8 67.2 7.2 66.4 38.4-0.8 37.6-63.2 35.2-63.2 35.2s12.8 28-19.2 56.8c-28.8 25.6-94.4 24.8-94.4 24.8s31.2 36.8 34.4 77.6c2.4 30.4-30.4 76-30.4 76s45.6-29.6 76.8-27.2c40 2.4 76.8 37.6 76.8 37.6s1.6-65.6 28.8-92.8c30.4-31.2 57.6-16.8 57.6-16.8s0-62.4 38.4-61.6c31.2 0.8 44.8 32 35.2 68-9.6 36-48 50.4-48 50.4s27.2 24.8 44 45.6 20.8 60.8 20.8 60.8 38.4-44 61.6-58.4c22.4-15.2 43.2-14.4 43.2-14.4s-23.2-55.2-17.6-99.2c4-33.6 26.4-84.8 52-63.2 25.6 21.6 12 62.4 12 62.4s16.8-1.6 49.6 8 59.2 40.8 59.2 40.8-10.4-67.2-1.6-92.8c8.8-25.6 32-36.8 32-36.8s-42.4-28-84-73.6c-16-16.8-36-52.8-61.6-75.2-24-20.8-50.4-37.6-68.8-48.8-9.6-18.4-25.6-45.6-45.6-70.4-21.6-27.2-56-48.8-72-64.8-44-44-70.4-87.2-70.4-87.2s-12.8 22.4-38.4 30.4C387.2 253.6 320 240 320 240s29.6 25.6 37.6 58.4z" fill="#1491AF" p-id="13102"></path><path d="M353.6 253.6c8 32.8 5.6 49.6 5.6 49.6s40.8-12 61.6 15.2c20.8 26.4-32 46.4-65.6 49.6-44 4-98.4-21.6-98.4-21.6s-0.8 20.8-16 42.4c-16 21.6-61.6 58.4-61.6 58.4s39.2 6.4 59.2 24 44 45.6 44 45.6 16-38.4 52.8-45.6c36-8 67.2 7.2 66.4 38.4-1.6 36.8-64 34.4-64 34.4s12.8 28-19.2 56.8C289.6 627.2 224 626.4 224 626.4s31.2 36.8 34.4 77.6c2.4 30.4-30.4 76-30.4 76s45.6-29.6 76.8-27.2c40 2.4 76.8 37.6 76.8 37.6s1.6-65.6 28.8-92.8c30.4-31.2 57.6-16.8 57.6-16.8s0-62.4 38.4-61.6c31.2 0.8 44.8 32 35.2 68-9.6 36-48 50.4-48 50.4s27.2 24.8 44 45.6 20.8 60.8 20.8 60.8 38.4-44 61.6-58.4c22.4-15.2 43.2-14.4 43.2-14.4S640 716 645.6 672c4-33.6 26.4-84.8 52-63.2 25.6 21.6 12 62.4 12 62.4s16.8-1.6 49.6 8 59.2 40.8 59.2 40.8-10.4-67.2-1.6-92.8c8.8-25.6 32-36.8 32-36.8s-42.4-28-84-73.6c-16-16.8-36-52.8-61.6-75.2-24-20.8-50.4-37.6-68.8-48.8-9.6-18.4-25.6-45.6-45.6-70.4-21.6-27.2-56-48.8-72-64.8C472 211.2 446.4 168 446.4 168s-12.8 22.4-38.4 30.4c-25.6 8-92.8-5.6-92.8-5.6s30.4 28 38.4 60.8z" fill="#F99900" p-id="13103"></path><path d="M558.4 851.2h-2.4c-3.2-0.8-4.8-4-5.6-6.4 0 0-4-37.6-19.2-56-16-20-42.4-44.8-42.4-44.8-2.4-1.6-3.2-4.8-2.4-7.2 0.8-2.4 2.4-4.8 4.8-5.6 0 0 35.2-13.6 43.2-44.8 4.8-18.4 3.2-36-5.6-46.4-5.6-7.2-12.8-11.2-22.4-11.2-29.6 0-30.4 53.6-30.4 53.6 0 2.4-1.6 5.6-4 6.4-2.4 1.6-5.6 1.6-8 0 0 0-4.8-2.4-12-2.4-8.8 0-21.6 3.2-36 17.6-24.8 24.8-26.4 87.2-26.4 88 0 3.2-2.4 5.6-4.8 7.2-3.2 1.6-6.4 0.8-8.8-1.6 0 0-34.4-32.8-71.2-35.2-28-1.6-72 25.6-72 26.4-3.2 2.4-7.2 1.6-10.4-1.6-2.4-2.4-3.2-7.2-0.8-10.4 8.8-12 30.4-48 28.8-71.2-2.4-37.6-32-72.8-32.8-73.6-2.4-2.4-2.4-5.6-0.8-8.8 1.6-3.2 4-4.8 7.2-4.8 24 0 68.8-4.8 88.8-23.2 27.2-24.8 17.6-47.2 17.6-48-0.8-2.4-0.8-5.6 0.8-8 1.6-2.4 4-4 7.2-3.2h1.6c8.8 0 52.8-1.6 53.6-28 0-8.8-2.4-15.2-8-20.8-9.6-10.4-28.8-13.6-48.8-9.6-32 7.2-46.4 40.8-46.4 41.6-0.8 2.4-3.2 4-6.4 4.8-2.4 0-5.6-0.8-7.2-2.4 0 0-23.2-28-42.4-44.8-18.4-16-55.2-21.6-55.2-21.6-3.2-0.8-5.6-2.4-6.4-5.6-0.8-3.2 0-6.4 2.4-8 0.8 0 44.8-36 60-57.6 14.4-20 15.2-37.6 15.2-38.4 0-2.4 1.6-4.8 4-6.4 2.4-1.6 4.8-1.6 8-0.8 0.8 0 52.8 24.8 94.4 20.8 24.8-2.4 56.8-13.6 62.4-26.4 0.8-2.4 1.6-5.6-2.4-10.4-7.2-9.6-19.2-14.4-34.4-14.4-10.4 0-18.4 2.4-18.4 2.4-2.4 0.8-5.6 0-7.2-1.6-2.4-1.6-3.2-4-2.4-7.2 0 0 1.6-16.8-5.6-47.2-7.2-30.4-35.2-56.8-36-56.8-2.4-2.4-3.2-6.4-1.6-9.6 1.6-3.2 4.8-4.8 8.8-4 0 0 39.2 8 68 8 8.8 0 16-0.8 20.8-2.4 22.4-7.2 33.6-26.4 33.6-26.4 1.6-2.4 4-4 7.2-4s5.6 1.6 7.2 4c0 0.8 26.4 43.2 68.8 85.6 5.6 5.6 14.4 12.8 23.2 20 16.8 13.6 36 28 49.6 46.4 20 24.8 35.2 51.2 45.6 69.6 18.4 10.4 44 27.2 68 48 16.8 15.2 31.2 34.4 44 52 6.4 9.6 12.8 18.4 18.4 24 40.8 44.8 82.4 72 82.4 72.8 2.4 1.6 4 4 3.2 7.2 0 3.2-1.6 5.6-4 6.4 0 0-20 10.4-28 32.8-6.4 19.2-1.6 68 1.6 87.2 0 0.8 0.8 1.6 0.8 2.4 0 4.8-4 8-8 8-2.4 0-4.8-0.8-6.4-3.2 0 0-25.6-29.6-55.2-38.4-29.6-8.8-46.4-8-47.2-8-2.4 0-5.6-0.8-7.2-3.2-1.6-2.4-2.4-4.8-1.6-7.2 0 0 11.2-35.2-9.6-53.6-2.4-2.4-4.8-3.2-7.2-3.2-12.8 0-28 33.6-32 61.6-4.8 37.6 13.6 85.6 16.8 93.6 0.8 1.6 1.6 2.4 1.6 4 0 4.8-4 8-8 8-0.8 0-19.2 0-38.4 12.8-21.6 14.4-59.2 56.8-60 57.6-4.8 3.2-7.2 4.8-9.6 4.8z m-50.4-112c9.6 8.8 24.8 24.8 36 38.4 11.2 13.6 16.8 33.6 20 48 13.6-14.4 36-37.6 52-48 14.4-9.6 27.2-12.8 36.8-14.4-6.4-18.4-19.2-59.2-14.4-93.6 3.2-24.8 19.2-75.2 47.2-75.2 6.4 0 12 2.4 17.6 7.2 21.6 17.6 20 45.6 17.6 60.8 8.8 0.8 22.4 2.4 41.6 8 18.4 5.6 34.4 16.8 46.4 26.4-2.4-22.4-4-56 1.6-73.6 5.6-16.8 16.8-28 24.8-34.4-15.2-11.2-45.6-35.2-76-68-6.4-6.4-12.8-16-20-25.6-12-16.8-25.6-35.2-41.6-48.8-24-20.8-49.6-37.6-67.2-48-1.6-0.8-2.4-1.6-3.2-3.2-9.6-17.6-24.8-44.8-44.8-69.6-12.8-16-31.2-30.4-47.2-43.2-9.6-7.2-18.4-14.4-24.8-20.8-32-32-54.4-63.2-64.8-79.2-7.2 8-18.4 18.4-35.2 24-6.4 1.6-14.4 3.2-25.6 3.2-16 0-34.4-2.4-48-4 9.6 12 20 28.8 24.8 47.2 4.8 19.2 5.6 33.6 6.4 42.4 3.2-0.8 8-0.8 12-0.8 20.8 0 36.8 7.2 47.2 20.8 8 11.2 7.2 20.8 4 26.4-9.6 22.4-51.2 33.6-75.2 35.2-34.4 3.2-74.4-11.2-92.8-18.4-1.6 8.8-6.4 22.4-16 36-11.2 15.2-35.2 36.8-50.4 49.6 14.4 4 33.6 10.4 47.2 21.6 13.6 12 28 28 36.8 37.6 8-12.8 24.8-33.6 52-40 25.6-5.6 49.6 0 63.2 13.6 8 8.8 12.8 20 12 32.8-0.8 29.6-30.4 41.6-61.6 43.2 1.6 12.8-0.8 33.6-24 55.2-21.6 20-61.6 25.6-84 26.4 10.4 15.2 24.8 41.6 27.2 69.6 1.6 17.6-7.2 39.2-16 56 16.8-8 37.6-15.2 55.2-14.4 28.8 1.6 54.4 18.4 68.8 29.6 2.4-22.4 9.6-61.6 30.4-82.4 18.4-18.4 36-22.4 48-22.4 3.2 0 5.6 0 8.8 0.8 2.4-19.2 10.4-59.2 44.8-59.2h0.8c14.4 0 26.4 6.4 35.2 17.6 11.2 15.2 14.4 36.8 8 60-7.2 25.6-28.8 41.6-41.6 49.6z" fill="#663210" p-id="13104"></path><path d="M360.8 664.8c-2.4 0-4.8-0.8-6.4-3.2-2.4-3.2-2.4-8.8 0.8-11.2 2.4-1.6 237.6-194.4 390.4-400.8 2.4-3.2 8-4 11.2-1.6 3.2 2.4 4 8 1.6 11.2-154.4 208-391.2 401.6-393.6 404 0 0.8-1.6 1.6-4 1.6z" fill="#663210" p-id="13105"></path><path d="M590.4 698.4h-2.4c-4-0.8-6.4-5.6-5.6-9.6 0.8-2.4 55.2-203.2 48-276-0.8-4 2.4-8 7.2-8.8 4-0.8 8 2.4 8.8 7.2 7.2 76-46.4 273.6-48.8 282.4-0.8 2.4-4 4.8-7.2 4.8zM308.8 434.4c-4 0-8-3.2-8-8s3.2-8 8-8c1.6 0 200.8-6.4 308-32 4-0.8 8.8 1.6 9.6 5.6 0.8 4-1.6 8.8-5.6 9.6-109.6 27.2-309.6 32.8-312 32.8z" fill="#663210" p-id="13106"></path><path d="M753.6 590.4c-3.2 0-6.4-1.6-7.2-4.8-24.8-56-125.6-182.4-133.6-192.8-63.2-52-177.6-123.2-179.2-124-4-2.4-4.8-7.2-2.4-11.2 2.4-4 7.2-4.8 11.2-2.4 0.8 0.8 117.6 73.6 181.6 126.4 0.8 0 0.8 0.8 0.8 0.8 4.8 5.6 110.4 136.8 136.8 196.8 1.6 4 0 8.8-4 10.4-1.6 0.8-2.4 0.8-4 0.8z" fill="#663210" p-id="13107"></path><path d="M236 437.6c-2.4 0-4.8-0.8-6.4-2.4-3.2-3.2-2.4-8 0.8-11.2 0 0 8.8-8 20-21.6 10.4-12.8 12.8-24 12.8-24.8 0.8-2.4 2.4-4.8 4-5.6 2.4-0.8 4.8-0.8 7.2 0 0.8 0 44.8 21.6 96 10.4 50.4-11.2 71.2-36.8 72.8-50.4 0-4.8 4-8 8.8-7.2 4.8 0 8 4 7.2 8.8-1.6 22.4-28.8 52-84.8 64.8-43.2 9.6-81.6-1.6-98.4-8-2.4 5.6-6.4 13.6-13.6 22.4-12 15.2-21.6 23.2-22.4 24 0 0-2.4 0.8-4 0.8zM377.6 281.6h-0.8c-4-0.8-7.2-4.8-6.4-8.8 4-24.8-2.4-44-2.4-44-1.6-4 0.8-8.8 4.8-10.4 4-1.6 8.8 0.8 10.4 4.8 0 0.8 7.2 22.4 3.2 52-1.6 3.2-4.8 6.4-8.8 6.4zM268 657.6c-4 0-7.2-2.4-8-6.4-0.8-4 1.6-8.8 5.6-9.6 0 0 38.4-8.8 59.2-28.8 20.8-19.2 28-45.6 28-45.6 0.8-4 5.6-6.4 9.6-5.6 4 0.8 6.4 5.6 5.6 9.6 0 1.6-8.8 30.4-32.8 52.8-24 22.4-64.8 32-66.4 32.8 0.8 0.8 0 0.8-0.8 0.8zM569.6 793.6c-4 0-7.2-3.2-8-7.2-3.2-26.4-26.4-37.6-26.4-37.6-4-1.6-5.6-6.4-3.2-10.4 1.6-4 6.4-5.6 10.4-3.2 1.6 0.8 30.4 16 35.2 50.4 0.8 4-2.4 8-7.2 8.8 0-0.8-0.8-0.8-0.8-0.8zM582.4 598.4h-2.4c-4-0.8-6.4-5.6-5.6-9.6 19.2-71.2 22.4-116.8 22.4-116.8 0-4.8 4-8 8.8-7.2 4.8 0 8 4 7.2 8.8 0 1.6-3.2 47.2-23.2 120 0 2.4-3.2 4.8-7.2 4.8zM428 572c-2.4 0-4-0.8-5.6-2.4-3.2-3.2-3.2-8 0.8-11.2 0.8-0.8 75.2-69.6 119.2-121.6 3.2-3.2 8-4 11.2-0.8 3.2 3.2 4 8 0.8 11.2-44.8 52.8-120 122.4-120.8 123.2-1.6 0.8-4 1.6-5.6 1.6zM155.2 550.4c0-3.2-3.2-6.4-8-7.2l-15.2-2.4c-4-0.8-8.8-4.8-8.8-8.8l-2.4-15.2c-0.8-4-4-8-7.2-8s-6.4 3.2-7.2 8l-2.4 15.2c-0.8 4-4.8 8.8-8.8 8.8l-13.6 3.2c-4 0.8-8 4-8 7.2s3.2 6.4 8 7.2l14.4 1.6c4 0.8 8.8 4.8 8.8 8.8l2.4 15.2c0.8 4 4 8 7.2 8s6.4-3.2 7.2-8l2.4-16.8c0.8-4 4.8-8 8.8-8.8l14.4-0.8c4.8-0.8 8-4 8-7.2zM696.8 149.6c0-3.2-3.2-6.4-8-7.2l-15.2-2.4c-4-0.8-8.8-4.8-8.8-8.8l-2.4-15.2c-0.8-4-4-8-7.2-8s-6.4 3.2-7.2 8l-2.4 15.2c-0.8 4-4.8 8.8-8.8 8.8l-15.2 2.4c-4 0.8-8 4-8 7.2s3.2 6.4 8 7.2l15.2 2.4c4 0.8 8.8 4.8 8.8 8.8l2.4 15.2c0.8 4 4 8 7.2 8s6.4-3.2 7.2-8l2.4-16.8c0.8-4 4.8-8 8.8-8.8l14.4-0.8c5.6-0.8 8.8-4 8.8-7.2zM803.2 817.6c0-3.2-3.2-6.4-8-7.2l-15.2-2.4c-4-0.8-8.8-4.8-8.8-8.8l-2.4-15.2c-0.8-4-4-8-7.2-8s-6.4 3.2-7.2 8l-2.4 15.2c-0.8 4-4.8 8.8-8.8 8.8l-15.2 2.4c-4 0.8-8 4-8 7.2s3.2 6.4 8 7.2l15.2 2.4c4 0.8 8.8 4.8 8.8 8.8l2.4 15.2c0.8 4 4 8 7.2 8s6.4-3.2 7.2-8l2.4-16.8c0.8-4 4.8-8 8.8-8.8l14.4-0.8c5.6-0.8 8.8-4 8.8-7.2zM816 440c-17.6 0-32-14.4-32-32s14.4-32 32-32 32 14.4 32 32-14.4 32-32 32z m0-48.8c-9.6 0-16.8 8-16.8 16.8 0 9.6 8 16.8 16.8 16.8 9.6 0 16.8-8 16.8-16.8 0-9.6-7.2-16.8-16.8-16.8zM208 279.2c-17.6 0-32-14.4-32-32s14.4-32 32-32 32 14.4 32 32c0 18.4-14.4 32-32 32z m0-48c-9.6 0-16.8 7.2-16.8 16.8 0 9.6 8 16.8 16.8 16.8 9.6 0 16.8-7.2 16.8-16.8 0-9.6-7.2-16.8-16.8-16.8zM464 936c-17.6 0-32-14.4-32-32s14.4-32 32-32 32 14.4 32 32-14.4 32-32 32z m0-48.8c-9.6 0-16.8 8-16.8 16.8 0 9.6 8 16.8 16.8 16.8 9.6 0 16.8-8 16.8-16.8 0-9.6-7.2-16.8-16.8-16.8z" fill="#FFFFFF" opacity=".5" p-id="13108"></path></svg>